<?xml version="1.0" encoding="UTF-8"?>
<svg xmlns="http://www.w3.org/2000/svg" viewBox="0 0 800 480" width="800" height="480">
  <style>text { font-family: -apple-system, BlinkMacSystemFont, 'Segoe UI', system-ui, sans-serif; }</style>
  <rect width="800" height="480" fill="#ffffff" rx="8"/>
  <rect x="1" y="1" width="798" height="478" fill="none" stroke="#d1d5db" rx="8"/>
  <text x="400" y="35" text-anchor="middle" fill="#374151" font-size="16" font-weight="700">Stress Test Latency Percentiles (ms) — lower is better</text>
  <line x1="100" y1="60" x2="100" y2="430" stroke="#e5e7eb" stroke-width="1"/>
<text x="100" y="450" text-anchor="middle" fill="#6b7280" font-size="11">0.0ms</text>
<line x1="214" y1="60" x2="214" y2="430" stroke="#e5e7eb" stroke-width="1"/>
<text x="214" y="450" text-anchor="middle" fill="#6b7280" font-size="11">430.8ms</text>
<line x1="328" y1="60" x2="328" y2="430" stroke="#e5e7eb" stroke-width="1"/>
<text x="328" y="450" text-anchor="middle" fill="#6b7280" font-size="11">861.6ms</text>
<line x1="442" y1="60" x2="442" y2="430" stroke="#e5e7eb" stroke-width="1"/>
<text x="442" y="450" text-anchor="middle" fill="#6b7280" font-size="11">1.3s</text>
<line x1="556" y1="60" x2="556" y2="430" stroke="#e5e7eb" stroke-width="1"/>
<text x="556" y="450" text-anchor="middle" fill="#6b7280" font-size="11">1.7s</text>
<line x1="670" y1="60" x2="670" y2="430" stroke="#e5e7eb" stroke-width="1"/>
<text x="670" y="450" text-anchor="middle" fill="#6b7280" font-size="11">2.2s</text>

  <text x="92" y="94.83333333333333" text-anchor="end" fill="#374151" font-size="12">avg</text>
<rect x="100" y="66.16666666666667" width="8.846348279610549" height="18.5" rx="3" fill="#00ADD8" opacity="0.85"/>
<text x="114.84634827961055" y="79.41666666666667" fill="#00ADD8" font-size="11" font-weight="600">33.4ms</text>
<rect x="100" y="86.66666666666667" width="14.717517307596319" height="18.5" rx="3" fill="#3178C6" opacity="0.85"/>
<text x="120.71751730759632" y="99.91666666666667" fill="#3178C6" font-size="11" font-weight="600">55.6ms</text>
<text x="92" y="156.5" text-anchor="end" fill="#374151" font-size="12">med</text>
<rect x="100" y="127.83333333333333" width="2.7929255061085874" height="18.5" rx="3" fill="#00ADD8" opacity="0.85"/>
<text x="108.79292550610859" y="141.08333333333331" fill="#00ADD8" font-size="11" font-weight="600">10.6ms</text>
<rect x="100" y="148.33333333333331" width="7.855069906937768" height="18.5" rx="3" fill="#3178C6" opacity="0.85"/>
<text x="113.85506990693777" y="161.58333333333331" fill="#3178C6" font-size="11" font-weight="600">29.7ms</text>
<text x="92" y="218.16666666666666" text-anchor="end" fill="#374151" font-size="12">p(90)</text>
<rect x="100" y="189.49999999999997" width="17.121818903541666" height="18.5" rx="3" fill="#00ADD8" opacity="0.85"/>
<text x="123.12181890354167" y="202.74999999999997" fill="#00ADD8" font-size="11" font-weight="600">64.7ms</text>
<rect x="100" y="209.99999999999997" width="36.65856304855996" height="18.5" rx="3" fill="#3178C6" opacity="0.85"/>
<text x="142.65856304855996" y="223.24999999999997" fill="#3178C6" font-size="11" font-weight="600">138.5ms</text>
<text x="92" y="279.8333333333333" text-anchor="end" fill="#374151" font-size="12">p(95)</text>
<rect x="100" y="251.16666666666666" width="33.726679310192644" height="18.5" rx="3" fill="#00ADD8" opacity="0.85"/>
<text x="139.72667931019265" y="264.41666666666663" fill="#00ADD8" font-size="11" font-weight="600">127.4ms</text>
<rect x="100" y="271.66666666666663" width="49.9616636528029" height="18.5" rx="3" fill="#3178C6" opacity="0.85"/>
<text x="155.96166365280288" y="284.91666666666663" fill="#3178C6" font-size="11" font-weight="600">188.8ms</text>
<text x="92" y="341.49999999999994" text-anchor="end" fill="#374151" font-size="12">p(99)</text>
<rect x="100" y="312.8333333333333" width="125.57283112071623" height="18.5" rx="3" fill="#00ADD8" opacity="0.85"/>
<text x="231.57283112071622" y="326.0833333333333" fill="#00ADD8" font-size="11" font-weight="600">474.5ms</text>
<rect x="100" y="333.3333333333333" width="87.0499148767256" height="18.5" rx="3" fill="#3178C6" opacity="0.85"/>
<text x="193.0499148767256" y="346.5833333333333" fill="#3178C6" font-size="11" font-weight="600">328.9ms</text>
<text x="92" y="403.16666666666663" text-anchor="end" fill="#374151" font-size="12">max</text>
<rect x="100" y="374.5" width="570" height="18.5" rx="3" fill="#00ADD8" opacity="0.85"/>
<text x="676" y="387.75" fill="#00ADD8" font-size="11" font-weight="600">2.2s</text>
<rect x="100" y="395" width="233.19631279495437" height="18.5" rx="3" fill="#3178C6" opacity="0.85"/>
<text x="339.19631279495434" y="408.25" fill="#3178C6" font-size="11" font-weight="600">881.2ms</text>

  
    <rect x="680" y="60" width="12" height="12" rx="2" fill="#00ADD8"/>
    <text x="698" y="71" fill="#374151" font-size="12">Go</text>
    <rect x="680" y="82" width="12" height="12" rx="2" fill="#3178C6"/>
    <text x="698" y="93" fill="#374151" font-size="12">TS</text>
  
</svg>